<?xml version="1.0" encoding="UTF-8" standalone="no"?>
<!-- Created with Inkscape (http://www.inkscape.org/) -->

<svg
   width="1023.9999"
   height="1023.9999"
   viewBox="0 0 270.93333 270.93333"
   version="1.1"
   id="svg1"
   inkscape:export-filename="flavorpal-logo.svg"
   inkscape:export-xdpi="96"
   inkscape:export-ydpi="96"
   inkscape:version="1.4.1 (93de688d07, 2025-03-30)"
   sodipodi:docname="flavorpal-logo-inkscape.svg"
   xmlns:inkscape="http://www.inkscape.org/namespaces/inkscape"
   xmlns:sodipodi="http://sodipodi.sourceforge.net/DTD/sodipodi-0.dtd"
   xmlns="http://www.w3.org/2000/svg"
   xmlns:svg="http://www.w3.org/2000/svg">
  <sodipodi:namedview
     id="namedview1"
     pagecolor="#ffffff"
     bordercolor="#000000"
     borderopacity="0.25"
     inkscape:showpageshadow="2"
     inkscape:pageopacity="0.0"
     inkscape:pagecheckerboard="0"
     inkscape:deskcolor="#d1d1d1"
     inkscape:document-units="mm"
     inkscape:zoom="0.26999878"
     inkscape:cx="320.37182"
     inkscape:cy="762.96641"
     inkscape:window-width="1566"
     inkscape:window-height="826"
     inkscape:window-x="0"
     inkscape:window-y="0"
     inkscape:window-maximized="1"
     inkscape:current-layer="g15">
    <inkscape:page
       x="0"
       y="0"
       width="270.93332"
       height="270.93332"
       id="page2"
       margin="0"
       bleed="0" />
  </sodipodi:namedview>
  <defs
     id="defs1" />
  <g
     inkscape:label="Layer 1"
     inkscape:groupmode="layer"
     id="layer1"
     transform="translate(-76.729167,-153.72292)">
    <rect
       style="fill:#ffa53b;fill-opacity:1;stroke-width:101.066;stroke-linecap:round;stroke-linejoin:round;paint-order:fill markers stroke"
       id="rect11-5-9-4"
       width="266.69632"
       height="25.011873"
       x="79.450241"
       y="336.55307"
       ry="11.322099"
       rx="9.5917816" />
    <rect
       style="fill:#ffc200;fill-opacity:1;stroke-width:93.2407;stroke-linecap:round;stroke-linejoin:round;paint-order:fill markers stroke"
       id="rect11-5-9"
       width="252.68628"
       height="22.468464"
       x="86.605148"
       y="323.83401"
       ry="11.234232" />
    <rect
       style="fill:#f40600;fill-opacity:1;stroke-width:105.996;stroke-linecap:round;stroke-linejoin:round;paint-order:fill markers stroke"
       id="rect11-5"
       width="231.70424"
       height="31.666288"
       x="97.395905"
       y="306.68521"
       ry="6.2576337"
       rx="7.9930863" />
    <path
       style="fill:#03ba50;fill-opacity:1;stroke:none;stroke-width:77.5033;stroke-linecap:round;stroke-linejoin:round;paint-order:fill markers stroke"
       d="m 89.61476,318.32196 c 0,0 0.259365,14.08796 12.44819,14.38771 12.18884,0.2994 21.47896,-13.57991 35.23241,-13.79184 13.75342,-0.21164 24.40786,14.00386 36.69427,13.79184 12.28639,-0.21164 23.52241,-14.00376 36.54231,-13.79184 13.01994,0.21165 24.74321,14.00379 40.88056,13.79184 16.13734,-0.21164 25.91397,-14.00381 39.11725,-13.79184 13.2033,0.21165 25.4865,13.9417 36.76765,13.79184 11.28115,-0.14992 11.994,-26.0398 11.994,-26.0398 L 88.699887,305.9889 Z"
       id="path12"
       sodipodi:nodetypes="cccccccsccc" />
    <path
       style="display:inline;fill:#ffc47e;fill-opacity:1;stroke-width:16.3124;stroke-linecap:round;stroke-linejoin:round;paint-order:fill markers stroke"
       d="m 30.37823,134.13836 44.128156,0.0457 c 0,0 1.935552,-0.2817 2.447692,-2.18629 0.51213,-1.90459 -1.40286,-2.86642 -1.40286,-2.86642 -2.60481,-1.6967 -17.529605,-10.40723 -17.529605,-10.40723 0,0 -2.817335,-1.8121 -5.2935,-1.8121 -2.476165,0 -4.893165,1.69335 -4.893165,1.69335 l -17.498702,10.52574 c 0,0 -2.301096,1.04391 -2.050332,2.94643 0.250764,1.90252 2.092316,2.06083 2.092316,2.06083 z"
       id="path3"
       sodipodi:nodetypes="cczcczcczc"
       transform="matrix(5.5548371,0,0,5.5548371,-79.236035,-433.13757)" />
    <path
       id="path3-9"
       style="display:inline;fill:#ffa53b;fill-opacity:1;stroke-width:90.6127;stroke-linecap:round;stroke-linejoin:round;paint-order:fill markers stroke"
       d="m 82.227023,289.18959 c -2.685789,2.73507 -4.971184,6.54768 -4.33927,11.34194 1.392954,10.56819 11.622546,11.44788 11.622546,11.44788 l 97.350651,0.10077 h 148.53202 c 2.49889,-0.58478 10.45166,-3.11519 12.83849,-11.99152 1.20248,-4.47199 -0.004,-8.00827 -1.79783,-10.6009 -0.83985,-0.19498 -1.71552,-0.29817 -2.61637,-0.29817 z" />
    <g
       id="g15"
       transform="matrix(5.554837,0,0,5.554837,-78.037063,-440.33141)">
      <rect
         style="fill:#684800;fill-opacity:1;stroke:none;stroke-width:16.1498;stroke-linecap:round;stroke-linejoin:round;paint-order:fill markers stroke"
         id="rect14"
         width="7.0418396"
         height="12.747829"
         x="38.200275"
         y="115.21163"
         ry="3.5670536" />
      <rect
         style="fill:#684800;fill-opacity:1;stroke:none;stroke-width:12.448;stroke-linecap:round;stroke-linejoin:round;paint-order:fill markers stroke"
         id="rect14-1-4"
         width="4.0315661"
         height="13.228576"
         x="-80.811775"
         y="-121.09248"
         ry="2.0157831"
         transform="matrix(0.47505032,-0.87995863,-0.87995863,-0.47505032,0,0)" />
      <rect
         style="fill:#684800;fill-opacity:1;stroke:none;stroke-width:12.448;stroke-linecap:round;stroke-linejoin:round;paint-order:fill markers stroke"
         id="rect14-1-4-0"
         width="4.0315661"
         height="13.228576"
         x="133.00163"
         y="-5.6345787"
         ry="2.0157831"
         transform="rotate(61.637374)" />
      <ellipse
         style="fill:#ffffff;fill-opacity:1;stroke:none;stroke-width:19.8847;stroke-linecap:round;stroke-linejoin:round;paint-order:fill markers stroke"
         id="path14"
         cx="42.471622"
         cy="117.82407"
         rx="1.5890338"
         ry="1.6487104" />
    </g>
  </g>
</svg>
